# xmcd
#
# Track frame offsets:
#	150
#	14597
#	30185
#	41384
#	59445
#	78219
#	91619
#	106658
#	123107
#	138903
#	157485
#	170206
#
# Disc length: 2454 seconds
# Revision: 0
# Processed by: cddbd v1.5.2PL0 Copyright (c) Steve Scherf et al.
# Submitted via: dBpowerAMP V12.0
#
DISCID=8c09940c
DTITLE=19-Twenty - 19-Twenty
DYEAR=2009
DGENRE=Blues
TTITLE0=The Tavern
TTITLE1=Kiama Town
TTITLE2=Lorne
TTITLE3=Louis Collins
TTITLE4=45 Degrees
TTITLE5=Wasn't For The Beat
TTITLE6=Bucket Of Poison
TTITLE7=1920's Blues
TTITLE8=16 Hours
TTITLE9=Grandma's Hands
TTITLE10=Slow It Down
TTITLE11=Wade In The Water
EXTD=
EXTT0=
EXTT1=
EXTT2=
EXTT3=
EXTT4=
EXTT5=
EXTT6=
EXTT7=
EXTT8=
EXTT9=
EXTT10=
EXTT11=
PLAYORDER=
